HIERARCHY
ROOT Hips
{
	OFFSET 0.000000 0.000000 0.000000 
	CHANNELS 6 Xposition Yposition Zposition Zrotation Yrotation Xrotation
	JOINT LeftUpLeg
	{
		OFFSET 1.363060 -1.794630 0.839290 
		CHANNELS 3 Zrotation Yrotation Xrotation
		JOINT LeftLeg
		{
			OFFSET 2.448110 -6.726130 0.000000 
			CHANNELS 3 Zrotation Yrotation Xrotation
			JOINT LeftFoot
			{
				OFFSET 2.562200 -7.039590 0.000000 
				CHANNELS 3 Zrotation Yrotation Xrotation
				JOINT LeftToeBase
				{
					OFFSET 0.157640 -0.433110 2.322550 
					CHANNELS 3 Zrotation Yrotation Xrotation
					End Site
					{
						OFFSET 0.000000 0.000000 0.000000 
					}
				}
			}
		}
	}
	JOINT RightUpLeg
	{
		OFFSET -1.305520 -1.794630 0.839290 
		CHANNELS 3 Zrotation Yrotation Xrotation
		JOINT RightLeg
		{
			OFFSET -2.542530 -6.985550 0.000000 
			CHANNELS 3 Zrotation Yrotation Xrotation
			JOINT RightFoot
			{
				OFFSET -2.568260 -7.056230 0.000000 
				CHANNELS 3 Zrotation Yrotation Xrotation
				JOINT RightToeBase
				{
					OFFSET -0.164730 -0.452590 2.363150 
					CHANNELS 3 Zrotation Yrotation Xrotation
					End Site
					{
						OFFSET 0.000000 0.000000 0.000000 
					}
				}
			}
		}
	}
	JOINT Spine
	{
		OFFSET 0.028270 2.035590 -0.193380 
		CHANNELS 3 Zrotation Yrotation Xrotation
		JOINT Spine1
		{
			OFFSET 0.056720 2.048850 -0.042750 
			CHANNELS 3 Zrotation Yrotation Xrotation
			JOINT Neck1
			{
				OFFSET -0.054170 1.746240 0.172020 
				CHANNELS 3 Zrotation Yrotation Xrotation
				JOINT Head
				{
					OFFSET 0.104070 1.761360 -0.123970 
					CHANNELS 3 Zrotation Yrotation Xrotation
					End Site
					{
						OFFSET 0.000000 0.000000 0.000000 
					}
				}
			}
			JOINT LeftArm
			{
				OFFSET 3.362410 1.200890 -0.311210 
				CHANNELS 3 Zrotation Yrotation Xrotation
				JOINT LeftForeArm
				{
					OFFSET 4.983000 -0.000000 -0.000000 
					CHANNELS 3 Zrotation Yrotation Xrotation
					JOINT LeftHand
					{
						OFFSET 3.483560 -0.000000 -0.000000 
						CHANNELS 3 Zrotation Yrotation Xrotation
						JOINT LeftHandIndex1
						{
							OFFSET 0.715260 -0.000000 -0.000000 
							CHANNELS 3 Zrotation Yrotation Xrotation
							End Site
							{
								OFFSET 0.000000 0.000000 0.000000 
							}
						}
					}
				}
			}
			JOINT RightArm
			{
				OFFSET -3.136600 1.374050 -0.404650 
				CHANNELS 3 Zrotation Yrotation Xrotation
				JOINT RightForeArm
				{
					OFFSET -5.241900 -0.000000 -0.000000 
					CHANNELS 3 Zrotation Yrotation Xrotation
					JOINT RightHand
					{
						OFFSET -3.444170 -0.000000 -0.000000 
						CHANNELS 3 Zrotation Yrotation Xrotation
						JOINT RightHandIndex1
						{
							OFFSET -0.622530 -0.000000 -0.000000 
							CHANNELS 3 Zrotation Yrotation Xrotation
							End Site
							{
								OFFSET 0.000000 0.000000 0.000000 
							}
						}
					}
				}
			}
		}
	}
}
MOTION
Frames: 9
Frame Time: 0.041667
0.318721 18.066645 7.603694 179.889985 -4.024578 -171.104407 -19.490316 0.602413 -18.109752 0.348812 7.093432 19.801451 0.685960 -14.705745 4.314706 0.555000 -4.772100 -13.259800 16.900801 -3.231889 -28.943917 -8.503422 -17.826580 56.886158 -1.543661 7.083452 1.397394 -1.558800 -7.879200 22.347900 0.970538 -0.293403 -3.432362 -1.371950 0.052275 8.421832 10.213269 -2.562522 5.381480 4.190100 -0.844100 -1.914900 -94.970446 -6.079087 8.082330 7.109176 -12.248171 -0.772338 -0.025862 -0.243649 40.932158 -7.125000 0.000000 0.000000 94.594655 -5.500060 -3.694584 -11.814540 23.456698 -2.600176 0.710247 -1.719704 35.677196 7.125000 0.000000 0.000000 
0.305862 18.046532 7.423452 -179.775403 -4.554289 -171.047065 -19.035823 0.173353 -17.682421 0.421917 7.236530 20.287848 0.710707 -14.936335 3.529474 0.567200 -4.823400 -13.405500 17.109176 -2.641278 -30.285694 -8.110122 -17.707908 55.698123 -1.596025 6.979321 0.396313 -1.110900 -6.696200 18.818300 1.051604 -0.600762 -3.433739 -1.342830 -0.103228 8.523168 10.293655 -2.541396 5.587044 4.229400 -0.828500 -1.778200 -95.006327 -6.941396 7.387655 7.028891 -12.103698 -0.754642 -0.026280 -0.238974 41.859455 -7.125000 0.000000 0.000000 94.589403 -5.579467 -3.898602 -11.775401 23.409822 -2.584842 0.735575 -1.700092 35.662373 7.125000 0.000000 0.000000 
0.301356 18.036091 7.244638 -179.720229 -5.173157 -170.996260 -18.882659 -0.142161 -17.239146 0.485194 7.340024 20.657782 0.725083 -15.324208 2.918512 0.559400 -4.790600 -13.312200 16.962427 -2.084796 -31.482265 -7.561687 -17.470759 54.000006 -1.579520 6.445910 -0.277933 -0.739700 -5.494500 15.324400 1.121339 -0.943431 -3.456694 -1.152468 -0.291057 8.492154 10.420865 -2.530930 5.772269 4.299400 -0.821700 -1.664200 -95.006924 -7.491761 7.745790 7.115421 -12.246192 -0.774990 -0.022985 -0.242295 41.546899 -7.125000 0.000000 0.000000 94.531677 -5.790668 -3.751026 -11.774852 23.405100 -2.573496 0.771248 -1.674577 35.570390 7.125000 0.000000 0.000000 
0.304214 18.027409 7.065715 -179.805514 -5.744746 -170.949274 -18.855680 -0.495137 -16.614213 0.510155 7.351845 20.759183 0.736123 -15.516460 2.447786 0.536100 -4.691600 -13.030900 16.635781 -1.581112 -32.452870 -6.878741 -17.110759 51.846229 -1.520654 5.668345 -0.833507 -0.573800 -4.850800 13.483400 1.164547 -1.194999 -3.486076 -0.958133 -0.438729 8.366960 10.490319 -2.615489 5.847964 4.311000 -0.865200 -1.597100 -94.877952 -7.843973 9.261215 7.309304 -12.570105 -0.820810 -0.016563 -0.250931 40.041067 -7.125000 0.000000 0.000000 94.571365 -6.098854 -3.552008 -11.845734 23.485167 -2.574655 0.799477 -1.648323 35.434543 7.125000 0.000000 0.000000 
0.307071 18.024441 6.881406 -179.679906 -6.337795 -170.974400 -18.584473 -0.851321 -15.745712 0.492334 7.255924 20.556985 0.751345 -15.526745 2.125430 0.483100 -4.457100 -12.366400 16.500458 -1.209638 -33.147601 -6.079819 -16.622029 49.290092 -1.440572 4.796890 -1.411872 -0.434700 -4.231100 11.727800 1.217880 -1.419706 -3.502809 -0.865857 -0.559697 8.254765 10.514567 -2.699642 5.732574 4.308500 -0.907800 -1.634500 -94.761877 -8.193303 10.816033 7.490606 -12.865800 -0.863002 -0.012948 -0.255779 38.552870 -7.125000 0.000000 0.000000 94.637909 -6.511642 -3.169605 -12.040005 23.726302 -2.611203 0.823791 -1.633832 35.099577 7.125000 0.000000 0.000000 
0.308610 18.032025 6.693800 -179.596826 -6.984258 -170.978878 -18.368931 -1.180351 -14.763542 0.443700 7.078774 20.117662 0.766549 -15.530513 1.818348 0.434400 -4.229500 -11.723200 16.248889 -0.965170 -33.671420 -5.192453 -15.998647 46.371994 -1.328138 3.856339 -1.661777 -0.543600 -4.723800 13.122500 1.272012 -1.673616 -3.508487 -0.770483 -0.696314 8.226748 10.613662 -2.749744 5.551045 4.361700 -0.930500 -1.712800 -94.682544 -8.553691 12.245552 7.692246 -13.202492 -0.911230 -0.010823 -0.258447 37.152946 -7.125000 0.000000 0.000000 94.729951 -6.879167 -2.780613 -12.295913 24.034600 -2.678273 0.853853 -1.642507 34.693506 7.125000 0.000000 0.000000 
0.315644 18.038509 6.503117 -179.508617 -7.526745 -170.902866 -18.139006 -1.232947 -13.808724 0.362857 6.800828 19.395066 0.777871 -15.589594 1.664859 0.418400 -4.152000 -11.504800 15.981055 -0.689190 -34.095921 -4.250783 -15.255498 43.174211 -1.151253 2.728964 -1.605099 -0.733800 -5.473000 15.262600 1.329954 -1.904220 -3.505173 -0.632119 -0.826380 8.311707 10.781016 -2.772947 5.403074 4.456800 -0.936000 -1.768500 -94.623393 -8.972109 13.708998 7.915804 -13.583153 -0.967251 -0.007128 -0.264544 35.664525 -7.125000 0.000000 0.000000 94.818942 -7.021575 -2.775268 -12.360491 24.101079 -2.695856 0.852169 -1.650857 34.746913 7.125000 0.000000 0.000000 
0.327074 18.044444 6.307159 -179.540807 -7.929839 -170.852113 -18.030779 -0.963835 -12.756593 0.256122 6.422456 18.393370 0.776565 -15.710234 1.708934 0.407100 -4.096100 -11.347200 15.642496 -0.519261 -34.354939 -3.301256 -14.397083 39.787752 -0.960883 1.620623 -1.415739 -0.649800 -5.156400 14.355300 1.373528 -2.078852 -3.495147 -0.474827 -0.936152 8.417505 10.861790 -2.815138 5.354541 4.488600 -0.954200 -1.779700 -94.550640 -9.291975 15.477747 8.192440 -14.049690 -1.038034 -0.002476 -0.275101 34.003234 -7.125000 0.000000 0.000000 94.943957 -7.088708 -3.244250 -12.273601 23.970094 -2.666059 0.826346 -1.645017 35.183932 7.125000 0.000000 0.000000 
0.339823 18.052467 6.104826 -179.837620 -8.286379 -170.759311 -18.193939 -0.651526 -11.591062 0.135871 5.975750 17.198584 0.759503 -15.865181 1.873124 0.369500 -3.904500 -10.808200 15.058192 -0.502059 -34.526125 -2.378999 -13.431822 36.274081 -0.836439 0.847195 -0.925119 -0.512200 -4.587300 12.735200 1.399482 -2.224391 -3.490658 -0.224127 -1.046737 8.521163 10.834557 -2.874931 5.334710 4.427100 -0.985100 -1.774200 -94.505596 -9.513950 17.195440 8.489502 -14.561566 -1.118032 0.001704 -0.284660 32.561636 -7.125000 0.000000 0.000000 95.086310 -7.196357 -3.857842 -12.222450 23.854394 -2.651207 0.810707 -1.646123 35.468589 7.125000 0.000000 0.000000 
